<svg width="55" height="59" viewBox="0 0 55 59" fill="none" xmlns="http://www.w3.org/2000/svg">
<path d="M27.4622 44.8113H32.0767L16.4891 11.9921L0.90625 44.8113H5.51606L8.495 38.5963H20.7501L18.8977 34.7084H10.3568L16.5032 21.8787L27.4622 44.8113Z" fill="white"/>
<path d="M39.4096 11.9909L32.443 26.6446L25.8771 12.8747C25.4011 11.8451 25.1748 10.9613 25.1748 10.0869C25.1748 6.87592 27.7908 4.26674 31.0101 4.26674C33.0841 4.26674 35.0166 5.38093 36.0583 7.1815L36.4495 7.85848L38.5376 3.45813L38.3491 3.25597C36.4542 1.23445 33.777 0.0732422 31.0054 0.0732422C25.4671 0.0732422 20.9609 4.56762 20.9609 10.0916C20.9609 11.5677 21.2767 12.9922 21.9036 14.3227L37.067 46.1171C37.5431 47.1466 37.7693 48.0305 37.7693 48.9049C37.7693 52.1158 35.1533 54.725 31.934 54.725C29.86 54.725 27.9275 53.6108 26.8858 51.8103L26.4946 51.1333L24.4065 55.5336L24.5951 55.7358C26.4899 57.7573 29.1672 58.9185 31.9387 58.9185C37.4771 58.9185 41.9832 54.4242 41.9832 48.9002C41.9832 47.424 41.6674 45.9995 41.0405 44.6691L34.7715 31.5198L39.3955 21.8775L45.5466 34.7072H40.0506L41.9078 38.5904H47.4084L50.3874 44.8054H54.9972L39.4143 11.9909H39.4096Z" fill="white"/>
</svg>
